<svg width="309" height="458" viewBox="0 0 309 458" fill="none" xmlns="http://www.w3.org/2000/svg">
<g opacity="0.2">
<path d="M114.553 457.988V443.977C117.905 443.977 121.257 443.92 124.594 443.977C144.153 444.359 163.429 442.477 181.871 435.556C208.925 425.38 227.607 407.066 232.628 377.94C235.159 363.235 235.3 347.992 235.216 333.005C235.046 306.595 230.294 280.88 220.776 256.141C220.536 255.518 220.281 254.853 220.281 254.202C220.253 243.021 220.253 231.826 220.253 220.391C220.988 220.447 221.54 220.391 222.007 220.56C264.872 236.171 294.133 265.043 307.639 309.044C308.827 312.936 308.699 317.295 308.855 321.442C309.421 336.203 308.431 350.78 304.16 365.047C294.529 397.216 273.867 420.143 244.691 435.641C217 450.346 187.344 457.847 155.92 457.974C143.488 458.031 131.057 457.974 118.612 457.974H114.539L114.553 457.988Z" fill="white"/>
<path d="M220.253 199.756V194.93C220.253 162.237 220.352 129.544 220.21 96.8369C220.126 76.3861 213.507 58.1997 199.803 42.9147C184.218 25.535 164.56 16.4064 141.24 15.8969C123.618 15.5148 105.969 15.8262 88.333 15.8403C87.8946 15.8403 87.4421 15.9394 86.6926 16.0384V213.428C87.8381 213.484 89.026 213.583 90.1998 213.598C111.908 213.598 133.617 213.555 155.325 213.668C157.786 213.668 159.2 212.862 160.544 210.88C177.43 185.971 189.479 159.095 194.089 129.148C194.118 128.95 194.287 128.751 194.485 128.369H205.064V320.423H194.231C191.671 302.916 186.764 286.23 178.957 270.591C173.371 259.41 166.752 248.725 160.402 237.94C159.667 236.681 157.645 235.45 156.216 235.435C133.829 235.28 111.442 235.322 89.0685 235.336C88.3048 235.336 87.5411 235.464 86.438 235.563V457.999H0V0.739258H291.629V4.7162C291.629 46.1273 291.629 87.5243 291.629 128.935C291.629 163.85 264.985 194.265 230.379 198.85C227.168 199.275 223.93 199.431 220.295 199.756H220.253Z" fill="white"/>
</g>
</svg>
