<svg width="115" height="115" viewBox="0 0 115 115" fill="none" xmlns="http://www.w3.org/2000/svg">
<path d="M64.1536 53.9695V53.3739C64.1536 49.3395 64.1658 45.3051 64.1483 41.2689C64.1379 38.7452 63.3211 36.5009 61.63 34.6147C59.7068 32.47 57.2809 31.3435 54.4031 31.2806C52.2285 31.2334 50.0505 31.2719 47.8742 31.2736C47.8201 31.2736 47.7643 31.2858 47.6718 31.2981V55.6566C47.8132 55.6636 47.9598 55.6758 48.1046 55.6776C50.7835 55.6776 53.4624 55.6723 56.1413 55.6863C56.445 55.6863 56.6195 55.5867 56.7853 55.3422C58.8691 52.2684 60.356 48.9518 60.9249 45.2561C60.9284 45.2317 60.9494 45.2072 60.9738 45.1601H62.2792V68.8602H60.9424C60.6265 66.6998 60.0209 64.6406 59.0576 62.7107C58.3682 61.331 57.5514 60.0124 56.7678 58.6815C56.6771 58.5261 56.4275 58.3742 56.2513 58.3724C53.4886 58.3532 50.7259 58.3584 47.965 58.3602C47.8707 58.3602 47.7765 58.3759 47.6404 58.3881V85.8083H36.9736V29.4101H72.9617V29.9009C72.9617 35.0111 72.9617 40.1197 72.9617 45.23C72.9617 49.5386 69.6737 53.2918 65.4032 53.8577C65.007 53.9101 64.6073 53.9293 64.1588 53.9695H64.1536Z" fill="white"/>
<path d="M51.1097 85.8362V84.1072C51.5233 84.1072 51.9369 84.1002 52.3488 84.1072C54.7624 84.1543 57.1411 83.9221 59.4169 83.068C62.7555 81.8123 65.0609 79.5523 65.6804 75.958C65.9928 74.1434 66.0103 72.2624 65.9998 70.4128C65.9789 67.1538 65.3925 63.9804 64.218 60.9275C64.1883 60.8507 64.1569 60.7686 64.1569 60.6883C64.1534 59.3085 64.1534 57.927 64.1534 56.5159C64.2441 56.5229 64.3122 56.5159 64.3698 56.5368C69.6595 58.4632 73.2704 62.0261 74.9371 67.456C75.0837 67.9363 75.0679 68.4742 75.0871 68.9859C75.157 70.8075 75.0348 72.6064 74.5077 74.3669C73.3192 78.3367 70.7695 81.1661 67.1691 83.0785C63.752 84.8931 60.0923 85.8188 56.2144 85.8345C54.6804 85.8415 53.1463 85.8345 51.6105 85.8345H51.1079L51.1097 85.8362Z" fill="white"/>
<path d="M6.07979 41.5518C6.462 41.6758 6.81453 41.7893 7.19324 41.9133C4.20718 51.5226 3.91922 61.1738 6.52133 70.8634C9.11821 80.5356 14.1636 88.7512 21.5371 95.573C21.2649 95.8734 21.0136 96.1494 20.7186 96.476C13.8093 90.1134 8.91751 82.4899 6.03442 73.5688C2.25952 61.8864 3.20368 50.0084 6.07979 41.5518Z" fill="white"/>
<path d="M94.7315 97.3266C93.2027 95.8997 91.7105 94.506 90.1416 93.0441C92.0631 92.8764 93.8851 92.7175 95.8153 92.5498C94.913 91.7167 94.0736 90.9413 93.2167 90.1484C93.4819 89.8602 93.735 89.5842 94.0247 89.2664C95.5361 90.6758 97.0387 92.0765 98.6216 93.5524C96.6931 93.7043 94.8467 93.851 92.8938 94.0064C93.8013 94.8483 94.6512 95.636 95.5343 96.4533C95.269 96.7415 95.0177 97.014 94.7298 97.3266H94.7315Z" fill="white"/>
<path d="M14.7588 21.6993C14.7501 20.0052 16.073 18.6604 17.7623 18.6464C19.511 18.6307 20.8723 19.9493 20.8845 21.6696C20.8967 23.3603 19.5355 24.7505 17.8548 24.761C16.1358 24.7732 14.7676 23.4214 14.7588 21.6993ZM15.9299 21.5928C15.9246 22.6634 16.8129 23.5699 17.881 23.5856C18.8775 23.6013 19.7257 22.763 19.7257 21.7622C19.7257 20.7213 18.792 19.7939 17.7414 19.7886C16.7536 19.7834 15.9368 20.599 15.9316 21.591L15.9299 21.5928Z" fill="white"/>
<path d="M60.497 5.18782C60.5075 6.85401 59.1201 8.25823 57.4481 8.2722C55.764 8.28617 54.3801 6.92562 54.3591 5.23847C54.3382 3.54433 55.7309 2.12964 57.4202 2.12964C59.0817 2.12964 60.4866 3.52337 60.497 5.18782ZM57.4255 7.11425C58.4726 7.12473 59.2667 6.3056 59.2754 5.20703C59.2824 4.13466 58.4639 3.26489 57.4429 3.26139C56.422 3.2579 55.6017 4.10497 55.5825 5.18607C55.5633 6.23923 56.3905 7.10377 57.4272 7.11425H57.4255Z" fill="white"/>
<path d="M46.0555 9.14721C44.3679 9.14372 42.9839 7.75173 43.0031 6.0803C43.0223 4.40013 44.415 3.00814 46.0764 3.00989C47.7274 3.00989 49.1445 4.41934 49.1637 6.07855C49.1847 7.74824 47.7623 9.1507 46.0555 9.14721ZM47.9264 6.15889C47.9299 5.03238 47.1201 4.16435 46.066 4.16784C45.0258 4.16959 44.2352 4.97649 44.2335 6.03489C44.2335 7.13695 45.0729 8.01022 46.1271 8.00498C47.1498 7.99974 47.9229 7.20681 47.9264 6.15889Z" fill="white"/>
<path d="M7.89502 29.9987C8.27373 29.3961 8.61579 28.8075 9.00148 28.2504C9.40637 27.6653 9.92645 27.199 10.7066 27.3684C11.4448 27.5291 11.8636 28.0373 11.9457 28.6783C12.4308 28.6538 12.916 28.5194 13.3383 28.6294C14.3436 28.8914 14.7729 29.9236 14.3 30.9453C13.9457 31.7103 13.4657 32.4159 13.0242 33.1756C12.1324 32.6237 11.2842 32.098 10.436 31.574C9.59835 31.0553 8.76239 30.5366 7.89502 29.9987ZM12.7066 31.5863C12.9055 31.223 13.1062 30.9208 13.2441 30.5925C13.3715 30.2886 13.3261 29.9812 13.012 29.7926C12.6961 29.6022 12.4134 29.707 12.2022 29.9707C11.9806 30.2484 11.7938 30.5541 11.5704 30.8807L12.7066 31.5863ZM9.50411 29.6057C9.87758 29.8345 10.2354 30.0546 10.5879 30.2711C11.2039 29.4276 11.2406 29.0328 10.7607 28.7324C10.3331 28.4652 10.0242 28.673 9.50411 29.6057Z" fill="white"/>
<path d="M34.5809 13.0891C33.7921 11.2343 33.0207 9.41617 32.2231 7.54388C33.2423 7.16838 34.1516 6.55185 35.2546 6.50295C36.7101 6.43658 37.8689 7.33604 38.2878 8.81711C38.6473 10.0921 38.1028 11.395 36.8549 12.0674C36.1359 12.4551 35.3628 12.7416 34.5809 13.0874V13.0891ZM33.7677 8.15692C34.2563 9.3009 34.7345 10.4239 35.2127 11.5434C36.9492 10.9409 37.5146 10.0449 36.9789 8.79964C36.4239 7.5072 35.3785 7.28889 33.7677 8.15517V8.15692Z" fill="white"/>
<path d="M86.2722 96.7554C87.445 98.4338 88.5689 100.042 89.7591 101.744C88.897 102.264 88.0977 102.863 87.2094 103.253C85.9039 103.827 84.4711 103.23 83.6579 101.922C82.9196 100.732 83.0924 99.2599 84.1657 98.3116C84.808 97.744 85.5462 97.2846 86.2739 96.7537L86.2722 96.7554ZM88.0959 101.431C87.3734 100.399 86.6771 99.3997 85.9685 98.3902C85.1692 98.9264 84.3472 99.4119 84.4397 100.495C84.506 101.261 84.9423 101.861 85.6526 102.177C86.6387 102.617 87.342 101.997 88.0942 101.433L88.0959 101.431Z" fill="white"/>
<path d="M22.5161 13.3195C23.3346 12.8183 24.0868 12.2507 24.9245 11.8682C26.2962 11.2412 27.7203 11.7721 28.5737 13.1012C29.3539 14.3168 29.1863 15.7944 28.0729 16.7777C27.4306 17.3435 26.6889 17.7976 25.9699 18.3164C24.8128 16.6432 23.6906 15.0172 22.5179 13.3195H22.5161ZM24.1706 13.6322C24.8844 14.6644 25.5772 15.6651 26.2805 16.6816C27.0589 16.1629 27.8774 15.7001 27.8216 14.6382C27.7797 13.8452 27.3399 13.2357 26.6261 12.9039C25.647 12.448 24.9332 13.0558 24.1723 13.6322H24.1706Z" fill="white"/>
<path d="M105.126 63.3273C107.123 63.6591 109.069 63.9822 111.062 64.3123C110.917 65.1018 110.822 65.8615 110.636 66.5985C110.201 68.3049 108.775 69.1694 107.03 68.8289C105.505 68.5319 104.58 67.1958 104.774 65.5244C104.857 64.8066 105 64.0957 105.126 63.3273ZM106.07 64.6861C105.884 65.6397 105.658 66.5688 106.505 67.2535C107.13 67.7582 107.889 67.856 108.634 67.5172C109.576 67.0876 109.61 66.1846 109.721 65.2904C108.5 65.0895 107.309 64.8922 106.07 64.6878V64.6861Z" fill="white"/>
<path d="M70.4155 111.18C69.5533 111.348 68.768 111.55 67.9704 111.641C67.1607 111.733 66.4713 111.423 66.0961 110.659C65.7017 109.856 65.6912 109.047 66.2619 108.296C66.295 108.253 66.3264 108.209 66.3875 108.129C65.7872 107.551 65.1903 106.976 64.5376 106.345C64.9966 106.235 65.3526 106.131 65.7156 106.075C65.836 106.056 66.0053 106.134 66.1048 106.223C66.4504 106.527 66.7977 106.833 67.0996 107.179C67.4434 107.571 67.8099 107.668 68.3177 107.378C68.1921 106.803 68.0577 106.2 67.9181 105.561C68.3038 105.474 68.665 105.392 69.0629 105.299C69.5132 107.255 69.9547 109.178 70.4155 111.18ZM68.583 108.513C68.0315 108.754 67.3282 108.597 67.0978 109.327C66.9722 109.727 67.0874 110.099 67.398 110.35C67.9303 110.782 68.4504 110.35 69.0001 110.303C68.857 109.69 68.7244 109.126 68.5813 108.513H68.583Z" fill="white"/>
<path d="M104.763 40.7764C104.253 41.4506 103.752 42.1143 103.243 42.7867C103.208 42.7378 103.197 42.7273 103.192 42.7151C102.859 41.9582 102.939 41.2462 103.429 40.5791C103.52 40.4551 103.597 40.3171 103.705 40.2105C104.093 39.8315 104.129 39.4298 103.768 38.9583C103.211 39.1591 102.63 39.3705 102.021 39.5905C101.887 39.2238 101.759 38.8744 101.616 38.4867C103.499 37.7846 105.346 37.0965 107.29 36.3734C107.566 37.2903 107.899 38.1636 108.075 39.0666C108.208 39.746 107.901 40.3642 107.292 40.7537C106.608 41.1921 105.873 41.3091 105.103 40.9685C104.991 40.9196 104.89 40.8498 104.761 40.7747L104.763 40.7764ZM104.876 38.5391C105.152 39.0736 105.108 39.7757 105.843 39.9206C106.265 40.0045 106.637 39.8298 106.843 39.4718C107.175 38.8972 106.709 38.4396 106.59 37.8999C105.998 38.1199 105.47 38.3173 104.875 38.5374L104.876 38.5391Z" fill="white"/>
<path d="M93.0244 17.1462C92.7068 17.2108 92.4101 17.2737 92.1047 17.3365C92.0506 17.0711 92.0593 16.8073 91.9424 16.6205C91.8185 16.4231 91.5811 16.1926 91.3822 16.1803C91.2234 16.1716 90.9319 16.4493 90.8988 16.6362C90.7749 17.3278 90.7347 18.0334 90.6475 18.8927C91.356 18.3059 91.9407 18.1557 92.3979 19.0324C91.9686 19.2595 91.5096 19.5337 91.0244 19.7485C90.6667 19.9074 90.534 20.1327 90.5358 20.517C90.5375 20.9903 90.4764 21.4619 90.4363 22.0347C90.1431 21.7919 89.9145 21.5632 89.6474 21.3902C89.2687 21.1475 89.4939 20.7807 89.4275 20.482C87.7103 20.1974 86.801 19.2455 87.0314 17.9845C87.2338 16.8755 88.1605 16.4283 89.6998 16.7165C89.822 16.121 89.9022 15.4712 90.5305 15.1726C90.8045 15.0433 91.1553 14.9735 91.4503 15.0136C92.3455 15.1394 93.0367 16.0913 93.0262 17.1462H93.0244ZM89.52 19.387C89.5532 18.9626 89.5916 18.5591 89.616 18.1557C89.644 17.6963 89.4607 17.5374 88.9947 17.6038C88.4869 17.6771 88.1448 18.0963 88.2164 18.5626C88.3036 19.1355 88.8918 19.5197 89.52 19.3852V19.387Z" fill="white"/>
<path d="M70.2496 10.237C69.8517 10.1427 69.5009 10.0589 69.103 9.96458C69.2915 9.17864 69.4747 8.41366 69.672 7.59453C68.8133 7.3832 67.9686 7.17536 67.0751 6.9553C66.8761 7.74997 66.6841 8.51321 66.4834 9.31487L65.3403 9.04416C65.8168 7.09153 66.2845 5.17558 66.7644 3.20898L67.9093 3.48668C67.7191 4.27612 67.5393 5.03062 67.3456 5.83752C68.1955 6.0471 69.0384 6.25669 69.939 6.4785C70.1397 5.68906 70.3316 4.92932 70.5341 4.13115L71.6702 4.40711C71.1973 6.351 70.7296 8.26695 70.2496 10.237Z" fill="white"/>
<path d="M76.3682 109.236C76.2112 108.874 76.0733 108.558 75.9145 108.193C76.8045 107.795 77.6737 107.407 78.5672 107.009C78.3962 106.62 78.2356 106.255 78.0541 105.846C77.2618 106.192 76.4922 106.527 75.6928 106.875C75.5375 106.52 75.3927 106.194 75.2373 105.839C76.0332 105.484 76.7906 105.146 77.5847 104.793L77.0663 103.609C76.1414 104.016 75.2408 104.41 74.3037 104.823C74.1483 104.478 74.0017 104.155 73.8359 103.785C75.1257 103.216 76.3927 102.655 77.6876 102.082C78.4957 103.914 79.2932 105.72 80.1117 107.579C78.8656 108.13 77.6405 108.672 76.3665 109.236H76.3682Z" fill="white"/>
<path d="M105.404 58.1978V54.0393C107.323 53.9764 109.294 53.9136 111.318 53.8489C111.364 55.2235 111.407 56.5648 111.451 57.9393H110.259V55.1117H108.983V57.6773H107.843V55.178H106.554V58.1978H105.402H105.404Z" fill="white"/>
<path d="M33.8358 103.85C34.1203 103.284 34.3943 102.741 34.684 102.164C35.04 102.342 35.3699 102.507 35.7346 102.688C34.8481 104.484 33.9755 106.253 33.0627 108.101C32.2931 107.678 31.5042 107.324 30.8044 106.842C29.9492 106.251 29.8061 105.245 30.3314 104.311C30.8742 103.343 31.7765 102.983 32.766 103.359C33.1168 103.492 33.4484 103.672 33.8323 103.848L33.8358 103.85ZM33.3332 104.878C32.7538 104.676 32.2966 104.161 31.6665 104.564C31.3018 104.798 31.1657 105.184 31.2686 105.586C31.4292 106.213 32.0697 106.218 32.5165 106.529C32.7974 105.961 33.047 105.455 33.3332 104.877V104.878Z" fill="white"/>
<path d="M99.6792 80.9128C101.009 82.7921 102.302 84.6172 103.657 86.5297C101.341 86.2136 99.1225 85.9114 96.8433 85.6023C97.0736 85.2163 97.2586 84.874 97.4803 84.5596C97.5326 84.4863 97.7211 84.4723 97.838 84.4897C98.7944 84.6277 98.7525 84.6015 99.2953 83.8365C99.7368 83.2148 99.8852 82.6856 99.2394 82.1354C99.0754 81.9957 99.0824 81.8437 99.2133 81.6639C99.3738 81.4438 99.503 81.1993 99.6775 80.9146L99.6792 80.9128ZM99.845 84.8216C100.37 84.9072 100.828 84.9823 101.388 85.0731C101.044 84.6068 100.766 84.2295 100.461 83.8138C100.253 84.1544 100.068 84.4566 99.845 84.8216Z" fill="white"/>
<path d="M101.168 30.0214C101.557 30.6764 101.918 31.2859 102.301 31.9304C101.974 32.1295 101.671 32.3129 101.33 32.519C100.945 31.8797 100.575 31.2649 100.184 30.6152C99.51 31.0134 98.8555 31.4029 98.1662 31.8099C97.9655 31.4833 97.77 31.1671 97.5483 30.8074C99.2674 29.7786 100.971 28.7569 102.704 27.7195C103.349 28.7988 103.976 29.8468 104.632 30.9418C104.304 31.1374 103.99 31.3261 103.655 31.5269C103.205 30.7777 102.775 30.0651 102.33 29.3263C101.932 29.5638 101.566 29.7839 101.166 30.0214H101.168Z" fill="white"/>
<path d="M102.601 77.3325C102.217 77.1858 101.894 77.0618 101.54 76.9256C102.004 75.6751 102.458 74.4525 102.93 73.1758C104.805 73.8726 106.66 74.5625 108.561 75.2681C108.423 75.6384 108.295 75.9842 108.149 76.3754C106.63 75.813 105.138 75.2594 103.594 74.6865C103.26 75.5755 102.932 76.4488 102.601 77.3325Z" fill="white"/>
<path d="M42.8374 106.445C41.9316 106.185 41.0555 105.933 40.1323 105.67C40.2301 105.315 40.3243 104.974 40.4342 104.574C41.7222 104.938 42.984 105.294 44.2894 105.663C43.7432 107.596 43.2074 109.494 42.6542 111.447C42.2685 111.337 41.9159 111.236 41.5215 111.122C41.9631 109.556 42.3941 108.022 42.8374 106.447V106.445Z" fill="white"/>
<path d="M51.9545 108.003C51.0104 107.91 50.1116 107.821 49.1587 107.729C49.1901 107.353 49.2215 107.002 49.2547 106.599C50.5915 106.724 51.8882 106.848 53.239 106.976C53.0505 108.97 52.8638 110.932 52.6736 112.947C52.2722 112.912 51.9074 112.881 51.5008 112.844C51.6543 111.209 51.8027 109.62 51.9528 108.005L51.9545 108.003Z" fill="white"/>
<path d="M76.3437 12.5739C75.965 12.408 75.6352 12.2631 75.2617 12.0989C76.0663 10.2528 76.8586 8.43291 77.6614 6.59381C78.0349 6.75799 78.3752 6.90819 78.7434 7.06887C77.9424 8.90797 77.1518 10.7191 76.3437 12.5739Z" fill="white"/>
<path d="M104.609 48.7334C104.533 48.3387 104.461 47.9754 104.381 47.572C106.349 47.186 108.287 46.807 110.264 46.4193C110.343 46.8052 110.414 47.1545 110.498 47.5737C108.543 47.9579 106.611 48.3387 104.609 48.7334Z" fill="white"/>
</svg>
