<svg width="550" height="970" viewBox="0 0 550 970" fill="none" xmlns="http://www.w3.org/2000/svg">
<path d="M243.005 969.977V940.254C250.115 940.254 257.225 940.134 264.305 940.254C305.796 941.065 346.687 937.072 385.808 922.391C443.199 900.804 482.83 861.955 493.48 800.168C498.85 768.974 499.15 736.64 498.97 704.845C498.61 648.823 488.53 594.271 468.339 541.792C467.829 540.471 467.289 539.06 467.289 537.678C467.229 513.96 467.229 490.212 467.229 465.954C468.789 466.074 469.959 465.954 470.949 466.314C561.881 499.429 623.952 560.676 652.603 654.017C655.123 662.273 654.853 671.52 655.183 680.317C656.383 711.63 654.283 742.554 645.223 772.817C624.792 841.059 580.962 889.696 519.07 922.571C460.329 953.764 397.418 969.676 330.757 969.947C304.386 970.067 278.016 969.947 251.615 969.947H242.975L243.005 969.977Z" fill="white"/>
<path d="M467.229 422.181V411.943C467.229 342.59 467.439 273.238 467.139 203.855C466.959 160.472 452.919 121.893 423.848 89.4679C390.787 52.6 349.087 33.2353 299.616 32.1544C262.235 31.3438 224.794 32.0043 187.384 32.0343C186.454 32.0343 185.494 32.2445 183.904 32.4546V451.183C186.334 451.303 188.854 451.513 191.344 451.543C237.395 451.543 283.445 451.453 329.496 451.693C334.716 451.693 337.717 449.982 340.567 445.778C376.387 392.938 401.948 335.925 411.728 272.397C411.788 271.977 412.148 271.556 412.568 270.746H435.008V678.155H412.028C406.598 641.017 396.188 605.62 379.627 572.445C367.777 548.727 353.737 526.059 340.267 503.182C338.707 500.51 334.416 497.898 331.386 497.868C283.895 497.538 236.405 497.628 188.944 497.658C187.324 497.658 185.704 497.928 183.364 498.138V970H0V0H618.642V8.4364C618.642 96.2831 618.642 184.1 618.642 271.947C618.642 346.013 562.121 410.532 488.709 420.259C481.899 421.16 475.029 421.49 467.319 422.181H467.229Z" fill="white"/>
</svg>
