<svg width="48" height="48" viewBox="0 0 48 48" fill="none" xmlns="http://www.w3.org/2000/svg">
<g clip-path="url(#clip0_601_8)">
<path d="M48 0H0V48H48V0Z" fill="#FE6A5B"/>
<path d="M13.6553 18.1406V29.8692L19.5195 24.0049L13.6553 18.1406Z" fill="white"/>
<path d="M14.8203 16.9653L22.2446 24.3896C23.1822 25.3273 24.8176 25.3273 25.7552 24.3896L33.1795 16.9653H14.8203Z" fill="white"/>
<path d="M26.9257 25.5601C26.1453 26.3414 25.1059 26.7725 24.0002 26.7725C22.8946 26.7725 21.8551 26.3414 21.0747 25.5601L20.6899 25.1753L14.8306 31.0346H33.1699L27.3106 25.1753L26.9257 25.5601Z" fill="white"/>
<path d="M28.4805 24.0049L34.3447 29.8692V18.1406L28.4805 24.0049Z" fill="white"/>
</g>
<defs>
<clipPath id="clip0_601_8">
<rect width="48" height="48" fill="white"/>
</clipPath>
</defs>
</svg>
