<svg width="145" height="112" viewBox="0 0 145 112" fill="none" xmlns="http://www.w3.org/2000/svg">
<path d="M143.868 12.5411V0.108696C116.317 -1.77499 73.2933 20.8293 73.2933 67.5449C73.2933 98.8142 92.1635 112 110.656 112C129.526 112 145 96.9305 145 78.4703C145 60.0101 129.526 44.9406 111.788 44.9406C98.5793 44.9406 115.94 12.1643 143.868 12.5411ZM0 67.5449C0 98.8142 18.8702 112 37.363 112C56.2332 112 71.7067 96.9305 71.7067 78.4703C71.7067 60.0101 56.2332 44.9406 38.4952 44.9406C25.2861 44.9406 42.6466 12.1643 70.5745 12.5411V0.108696C43.024 -1.77499 0 20.8293 0 67.5449Z" fill="white"/>
</svg>
