<svg width="374" height="274" viewBox="0 0 374 274" fill="none" xmlns="http://www.w3.org/2000/svg">
<mask id="mask0_418_13" style="mask-type:alpha" maskUnits="userSpaceOnUse" x="0" y="0" width="374" height="274">
<rect width="374" height="274" fill="#D9D9D9"/>
</mask>
<g mask="url(#mask0_418_13)">
<path d="M282.266 256.051V249.866C282.266 207.968 282.393 166.07 282.212 124.154C282.103 97.9455 273.621 74.6387 256.058 55.0501C236.085 32.7771 210.893 21.0783 181.006 20.4254C158.423 19.9357 135.804 20.3347 113.204 20.3528C112.642 20.3528 112.062 20.4798 111.101 20.6067V273.572C112.569 273.644 114.092 273.771 115.596 273.79C143.417 273.79 171.237 273.735 199.058 273.88C202.211 273.88 204.024 272.846 205.746 270.307C227.386 238.385 242.828 203.942 248.736 165.562C248.772 165.309 248.99 165.055 249.244 164.565H262.801V410.692H248.917C245.637 388.256 239.348 366.872 229.343 346.83C222.184 332.501 213.702 318.807 205.564 304.986C204.622 303.372 202.03 301.794 200.2 301.776C171.509 301.576 142.818 301.631 114.146 301.649C113.167 301.649 112.189 301.812 110.775 301.939V587.004H0V1H373.739V6.09666C373.739 59.1673 373.739 112.22 373.739 165.29C373.739 210.036 339.593 249.014 295.243 254.89C291.129 255.434 286.978 255.634 282.32 256.051H282.266Z" fill="white"/>
</g>
</svg>
