<svg width="553" height="581" viewBox="0 0 553 581" fill="none" xmlns="http://www.w3.org/2000/svg">
<mask id="mask0_409_11" style="mask-type:alpha" maskUnits="userSpaceOnUse" x="0" y="0" width="553" height="581">
<rect width="553" height="581" fill="#D9D9D9"/>
</mask>
<g mask="url(#mask0_409_11)">
<path d="M246.005 754.977V725.254C253.115 725.254 260.225 725.134 267.305 725.254C308.796 726.065 349.687 722.072 388.807 707.391C446.198 685.804 485.829 646.955 496.479 585.168C501.85 553.974 502.149 521.64 501.969 489.845C501.609 433.823 491.529 379.271 471.339 326.792C470.829 325.471 470.289 324.06 470.289 322.678C470.229 298.96 470.229 275.212 470.229 250.954C471.789 251.074 472.959 250.954 473.949 251.314C564.881 284.429 626.952 345.676 655.602 439.017C658.122 447.273 657.853 456.52 658.183 465.317C659.383 496.63 657.282 527.554 648.222 557.817C627.792 626.059 583.961 674.696 522.07 707.571C463.329 738.764 400.418 754.676 333.756 754.947C307.386 755.067 281.015 754.947 254.615 754.947H245.975L246.005 754.977Z" fill="white"/>
<path d="M470.229 207.181V196.943C470.229 127.59 470.439 58.2375 470.139 -11.1452C469.959 -54.5281 455.919 -93.1074 426.848 -125.532C393.787 -162.4 352.087 -181.765 302.616 -182.846C265.235 -183.656 227.794 -182.996 190.384 -182.966C189.454 -182.966 188.494 -182.756 186.904 -182.545V236.183C189.334 236.303 191.854 236.513 194.344 236.543C240.395 236.543 286.445 236.453 332.496 236.693C337.716 236.693 340.717 234.982 343.567 230.778C379.387 177.938 404.948 120.925 414.728 57.3968C414.788 56.9765 415.148 56.5562 415.568 55.7456H438.008V463.155H415.028C409.598 426.017 399.188 390.62 382.627 357.445C370.777 333.727 356.737 311.059 343.267 288.182C341.707 285.51 337.416 282.898 334.386 282.868C286.895 282.538 239.405 282.628 191.944 282.658C190.324 282.658 188.704 282.928 186.364 283.138V755H3V-215H621.642V-206.564C621.642 -118.717 621.642 -30.9002 621.642 56.9465C621.642 131.013 565.121 195.532 491.709 205.259C484.899 206.16 478.029 206.49 470.319 207.181H470.229Z" fill="white"/>
</g>
</svg>
