<svg width="54" height="105" viewBox="0 0 54 105" fill="none" xmlns="http://www.w3.org/2000/svg">
<rect x="25" y="18" width="4" height="35" rx="2" fill="#FE6A5B"/>
<path opacity="0.5" d="M14.6092 67.096C15.6012 67.096 16.3772 66.536 16.3772 65.536C16.3772 64.624 15.7452 64.24 15.0972 63.928L14.4652 63.624C13.9852 63.392 13.7532 63.168 13.7532 62.776C13.7532 62.288 14.1372 62.024 14.6492 62.024C15.0812 62.024 15.4012 62.208 15.7212 62.544C15.7852 62.608 15.8492 62.608 15.9052 62.536L16.1612 62.24C16.2092 62.176 16.2252 62.128 16.1532 62.056C15.7772 61.608 15.2732 61.336 14.6252 61.336C13.7372 61.336 13.0252 61.88 13.0252 62.784C13.0252 63.496 13.4572 63.92 14.0492 64.192L14.7292 64.52C15.2492 64.768 15.6492 64.992 15.6492 65.536C15.6492 66.072 15.2572 66.408 14.6012 66.408C14.0412 66.408 13.6732 66.16 13.3692 65.784C13.3132 65.728 13.2412 65.712 13.1852 65.776L12.9212 66.08C12.8652 66.144 12.8652 66.192 12.9052 66.256C13.2172 66.704 13.7772 67.096 14.6092 67.096ZM20.1448 67.104C20.9288 67.104 21.5608 66.816 22.0568 66.352C22.1128 66.296 22.1368 66.24 22.0728 66.176L21.7528 65.824C21.7048 65.776 21.6488 65.768 21.5848 65.832C21.1928 66.168 20.7288 66.376 20.1528 66.376C18.9528 66.376 18.0488 65.464 18.0488 64.224C18.0488 62.984 18.9528 62.064 20.1528 62.064C20.7288 62.064 21.1928 62.272 21.5848 62.608C21.6488 62.664 21.7048 62.664 21.7528 62.608L22.0728 62.264C22.1288 62.192 22.1128 62.136 22.0568 62.08C21.5608 61.624 20.9288 61.336 20.1448 61.336C18.5048 61.336 17.2888 62.6 17.2888 64.224C17.2888 65.848 18.5048 67.104 20.1448 67.104ZM26.1746 67H26.7266C26.8226 67 26.8626 66.944 26.8066 66.856L25.4706 64.856C26.3346 64.664 26.7746 64.016 26.7746 63.16C26.7746 62.128 26.1346 61.4 24.8946 61.4H23.3266C23.2546 61.4 23.2066 61.44 23.2066 61.512V66.888C23.2066 66.96 23.2546 67 23.3266 67H23.8466C23.9186 67 23.9586 66.96 23.9586 66.888V64.92H24.7266L26.0306 66.92C26.0626 66.976 26.1106 67 26.1746 67ZM23.9586 64.256V62.064H24.8466C25.5106 62.064 26.0466 62.344 26.0466 63.16C26.0466 63.976 25.5106 64.256 24.8466 64.256H23.9586ZM30.442 67.104C32.042 67.104 33.306 65.84 33.306 64.224C33.306 62.6 32.042 61.336 30.442 61.336C28.834 61.336 27.57 62.6 27.57 64.224C27.57 65.84 28.834 67.104 30.442 67.104ZM28.33 64.224C28.33 62.992 29.242 62.064 30.442 62.064C31.642 62.064 32.554 62.992 32.554 64.224C32.554 65.448 31.642 66.376 30.442 66.376C29.242 66.376 28.33 65.448 28.33 64.224ZM34.5688 67H37.1448C37.2168 67 37.2648 66.952 37.2648 66.88V66.448C37.2648 66.376 37.2168 66.328 37.1448 66.328H35.2008V61.512C35.2008 61.44 35.1608 61.4 35.0888 61.4H34.5688C34.4968 61.4 34.4488 61.44 34.4488 61.512V66.888C34.4488 66.96 34.4968 67 34.5688 67ZM38.4438 67H41.0198C41.0918 67 41.1398 66.952 41.1398 66.88V66.448C41.1398 66.376 41.0918 66.328 41.0198 66.328H39.0758V61.512C39.0758 61.44 39.0358 61.4 38.9638 61.4H38.4438C38.3718 61.4 38.3238 61.44 38.3238 61.512V66.888C38.3238 66.96 38.3718 67 38.4438 67ZM14.9164 75H16.2524C18.1804 75 19.1004 73.792 19.1004 72.2C19.1004 70.608 18.1804 69.4 16.2524 69.4H14.9164C14.8444 69.4 14.7964 69.44 14.7964 69.512V74.888C14.7964 74.96 14.8444 75 14.9164 75ZM15.5484 74.328V70.064H16.2364C17.6844 70.064 18.3404 70.864 18.3404 72.2C18.3404 73.536 17.6844 74.328 16.2364 74.328H15.5484ZM22.9069 75.104C24.5069 75.104 25.7709 73.84 25.7709 72.224C25.7709 70.6 24.5069 69.336 22.9069 69.336C21.2989 69.336 20.0349 70.6 20.0349 72.224C20.0349 73.84 21.2989 75.104 22.9069 75.104ZM20.7949 72.224C20.7949 70.992 21.7069 70.064 22.9069 70.064C24.1069 70.064 25.0189 70.992 25.0189 72.224C25.0189 73.448 24.1069 74.376 22.9069 74.376C21.7069 74.376 20.7949 73.448 20.7949 72.224ZM28.0272 75H28.6112C28.6752 75 28.7232 74.976 28.7472 74.904L30.1952 70.336L31.6352 74.904C31.6592 74.976 31.7072 75 31.7792 75H32.3552C32.4192 75 32.4752 74.976 32.4992 74.904L34.1392 69.536C34.1632 69.456 34.1312 69.4 34.0432 69.4H33.5152C33.4512 69.4 33.4032 69.424 33.3792 69.496L32.0432 73.992L30.5952 69.496C30.5712 69.424 30.5312 69.4 30.4672 69.4H29.9232C29.8512 69.4 29.8112 69.424 29.7872 69.496L28.3392 73.992L27.0032 69.496C26.9872 69.424 26.9312 69.4 26.8672 69.4H26.3392C26.2512 69.4 26.2192 69.456 26.2432 69.536L27.8912 74.904C27.9072 74.976 27.9632 75 28.0272 75ZM38.4215 75H39.0935C39.1655 75 39.2055 74.96 39.2055 74.888V69.512C39.2055 69.44 39.1655 69.4 39.0935 69.4H38.5735C38.5015 69.4 38.4535 69.44 38.4535 69.512V73.888L36.0055 69.48C35.9735 69.424 35.9255 69.4 35.8615 69.4H35.2055C35.1335 69.4 35.0855 69.44 35.0855 69.512V74.888C35.0855 74.96 35.1335 75 35.2055 75H35.7255C35.7975 75 35.8375 74.96 35.8375 74.888V70.528L38.2775 74.92C38.3095 74.976 38.3575 75 38.4215 75Z" fill="white"/>
<rect x="25" y="85" width="4" height="4" rx="2" fill="#FE6A5B"/>
<rect x="0.5" y="0.5" width="53" height="104" rx="26.5" stroke="white" stroke-opacity="0.5"/>
</svg>
